<?xml version="1.0" encoding="UTF-8" standalone="no"?>
<svg width="127px" height="90px" viewBox="0 0 127 90" version="1.1" xmlns="http://www.w3.org/2000/svg" xmlns:xlink="http://www.w3.org/1999/xlink">
    <!-- Generator: Sketch 42 (36781) - http://www.bohemiancoding.com/sketch -->
    <title>logo</title>
    <desc>Created with Sketch.</desc>
    <defs></defs>
    <g id="Page-1" stroke="none" stroke-width="1" fill="none" fill-rule="evenodd">
        <g id="logo" fill="#333333">
            <path d="M53.3044449,46.1222627 C53.7485776,46.0671211 54.066212,45.9981953 54.2573577,45.915483 C54.6002957,45.772115 54.771762,45.5487951 54.771762,45.2455167 C54.771762,44.8760684 54.6410541,44.6210427 54.3796342,44.4804318 C54.1182143,44.3398209 53.7345231,44.2695165 53.2285491,44.2695165 C52.6607339,44.2695165 52.2587717,44.4073682 52.0226505,44.6830759 C51.8539926,44.8870995 51.7415556,45.1628031 51.6853363,45.5101947 L49.3663005,45.5101947 C49.4168979,44.7216708 49.6417718,44.0737675 50.0409291,43.5664654 C50.6762075,42.7724274 51.7668461,42.3754143 53.3128777,42.3754143 C54.3192037,42.3754143 55.2130777,42.5711638 55.9945263,42.9626687 C56.775975,43.3541736 57.1666935,44.093059 57.1666935,45.1793472 L57.1666935,49.3149414 C57.1666935,49.6016774 57.1723154,49.9490638 57.1835592,50.3571112 C57.200425,50.6659037 57.2482107,50.8754384 57.3269178,50.9857215 C57.4056249,51.0960045 57.5236837,51.1869867 57.6810978,51.2586707 L57.6810978,51.6060606 L55.066912,51.6060606 C54.9938269,51.4240936 54.9432303,51.2531574 54.9151206,51.0932469 C54.8870109,50.9333365 54.8645235,50.7513722 54.8476578,50.5473485 C54.5159637,50.9002543 54.133678,51.2007711 53.7007892,51.448908 C53.1835713,51.7411581 52.5988991,51.887281 51.9467548,51.887281 C51.1147087,51.887281 50.4274377,51.6543115 49.8849212,51.1883656 C49.3424047,50.7224196 49.0711505,50.0621097 49.0711505,49.207416 C49.0711505,48.0990712 49.5068438,47.2967739 50.3782434,46.8005001 C50.8561077,46.5303066 51.5588388,46.3373141 52.4864577,46.2215169 L53.3044449,46.1222627 Z M54.7633292,47.2223307 C54.611537,47.3160713 54.4583416,47.3918898 54.3037385,47.4497884 C54.1491353,47.507687 53.9369105,47.5614492 53.6670577,47.6110766 L53.1273549,47.7103308 C52.6213809,47.7985573 52.2587716,47.9060817 52.0395163,48.0329072 C51.6684687,48.2479592 51.4829477,48.5815604 51.4829477,49.033721 C51.4829477,49.4362542 51.5967901,49.7271214 51.8244784,49.9063314 C52.0521667,50.0855414 52.3290427,50.175145 52.6551148,50.175145 C53.1723327,50.175145 53.6487844,50.0262651 54.0844842,49.7285008 C54.520184,49.4307366 54.7464634,48.8876006 54.7633292,48.0990767 L54.7633292,47.2223307 Z" id="Combined-Shape"></path>
            <polygon id="Wasabi-Now" points="16.9945223 39.4143288 18.6389295 46.3952119 18.9931095 48.3389412 19.3557224 46.4365678 20.7555767 39.4143288 23.4962553 39.4143288 24.9720054 46.3952119 25.351484 48.3389412 25.7309625 46.4696526 27.3922354 39.4143288 30.0317198 39.4143288 26.532084 51.6060606 24.0528239 51.6060606 22.5517753 44.4762962 22.1132667 42.1190075 21.6747582 44.4762962 20.1737096 51.6060606 17.7619124 51.6060606 14.236978 39.4143288"></polygon>
            <path d="M103.105527,42.5904652 L105.542623,42.5904652 L106.942477,49.0833481 L108.96417,49.0685928 L108.215839,51.6060606 L105.745012,51.6060606 L104.302993,45.038737 L102.844109,51.6060606 L100.347983,51.6060606 L97.7675286,42.5904652 L100.347983,42.5904652 L101.781569,49.0585346 L103.105527,42.5904652 Z M107.254131,47.6675837 L109.070931,39.4143288 L111.811332,39.4143288 L109.379995,47.6585986 L107.254131,47.6675837 Z" id="Combined-Shape"></path>
            <path d="M96.2886408,50.5101281 C95.512814,51.4502913 94.3350367,51.9203658 92.7552735,51.9203658 C91.1755104,51.9203658 89.9977331,51.4502913 89.2219063,50.5101281 C88.4460796,49.569965 88.058172,48.438202 88.058172,47.1148053 C88.058172,45.8134651 88.4460796,44.6858377 89.2219063,43.7318892 C89.9977331,42.7779407 91.1755104,42.3009736 92.7552735,42.3009736 C94.3350367,42.3009736 95.512814,42.7779407 96.2886408,43.7318892 C97.0644675,44.6858377 97.4523751,45.8134651 97.4523751,47.1148053 C97.4523751,48.438202 97.0644675,49.569965 96.2886408,50.5101281 Z M94.3659493,49.207416 C94.7426188,48.7166563 94.9309507,48.0191264 94.9309507,47.1148053 C94.9309507,46.2104842 94.7426188,45.5143328 94.3659493,45.0263302 C93.9892798,44.5383276 93.4495823,44.29433 92.7468407,44.29433 C92.0440991,44.29433 91.5029961,44.5383276 91.1235156,45.0263302 C90.7440352,45.5143328 90.5542978,46.2104842 90.5542978,47.1148053 C90.5542978,48.0191264 90.7440352,48.7166563 91.1235156,49.207416 C91.5029961,49.6981756 92.0440991,49.9435517 92.7468407,49.9435517 C93.4495823,49.9435517 93.9892798,49.6981756 94.3659493,49.207416 Z" id="Combined-Shape"></path>
            <polygon id="Path" points="76.7044082 39.4143288 79.4282212 39.4143288 84.3783084 47.9253817 84.3783084 39.4143288 86.7985385 39.4143288 86.7985385 51.6060606 84.2012184 51.6060606 79.1246383 42.9461263 79.1246383 51.6060606 76.7044082 51.6060606"></polygon>
            <path d="M41.8800414,48.727687 C41.9306388,49.1467627 42.0402648,49.4445225 42.2089228,49.6209754 C42.5068853,49.9352821 43.0578265,50.0924331 43.8617629,50.0924331 C44.3340052,50.0924331 44.7092636,50.0235072 44.9875493,49.8856534 C45.265835,49.7477996 45.4049758,49.5410219 45.4049758,49.2653143 C45.4049758,49.0006349 45.2925388,48.7993713 45.0676615,48.6615175 C44.8427841,48.5236637 44.0079396,48.2865587 42.5631028,47.9501953 C41.5230452,47.6965443 40.789394,47.3794852 40.3621271,46.9990086 C39.9348602,46.6240462 39.7212299,46.0836673 39.7212299,45.3778557 C39.7212299,44.5452186 40.0543245,43.8297679 40.7205235,43.2314823 C41.3867226,42.6331967 42.3241658,42.3340584 43.5328814,42.3340584 C44.6797558,42.3340584 45.6143881,42.5587567 46.3368065,43.0081602 C47.0592249,43.4575637 47.4738362,44.2336691 47.580653,45.3364998 L45.1772886,45.3364998 C45.143557,45.0332213 45.0564184,44.7933593 44.91587,44.6169064 C44.6516392,44.2970855 44.2018913,44.1371774 43.5666129,44.1371774 C43.0437731,44.1371774 42.6713256,44.2171315 42.4492593,44.3770419 C42.2271929,44.5369523 42.1161614,44.7244307 42.1161614,44.9394827 C42.1161614,45.2096762 42.2342202,45.4054257 42.4703414,45.5267371 C42.7064626,45.6535626 43.5413071,45.8713684 44.9749,46.180161 C45.9306286,46.4007271 46.6474144,46.7343284 47.1252787,47.1809748 C47.597521,47.6331353 47.8336387,48.1983276 47.8336387,48.8765684 C47.8336387,49.7698612 47.4949223,50.4990971 46.8174794,51.0642978 C46.1400364,51.6294985 45.0929671,51.9120946 43.67624,51.9120946 C42.2314032,51.9120946 41.1646574,51.6129563 40.4759707,51.0146706 C39.7872839,50.416385 39.4429456,49.6540648 39.4429456,48.727687 L41.8800414,48.727687 Z" id="Path"></path>
            <path d="M34.0121855,46.1222627 C34.4563182,46.0671211 34.7739527,45.9981953 34.9650984,45.915483 C35.3080363,45.772115 35.4795027,45.5487951 35.4795027,45.2455167 C35.4795027,44.8760684 35.3487947,44.6210427 35.0873748,44.4804318 C34.8259549,44.3398209 34.4422638,44.2695165 33.9362898,44.2695165 C33.3684746,44.2695165 32.9665124,44.4073682 32.7303912,44.6830759 C32.5617332,44.8870995 32.4492962,45.1628031 32.3930769,45.5101947 L30.0740411,45.5101947 C30.1246385,44.7216708 30.3495125,44.0737675 30.7486697,43.5664654 C31.3839482,42.7724274 32.4745868,42.3754143 34.0206184,42.3754143 C35.0269444,42.3754143 35.9208183,42.5711638 36.702267,42.9626687 C37.4837157,43.3541736 37.8744342,44.093059 37.8744342,45.1793472 L37.8744342,49.3149414 C37.8744342,49.6016774 37.880056,49.9490638 37.8912999,50.3571112 C37.9081657,50.6659037 37.9559514,50.8754384 38.0346585,50.9857215 C38.1133655,51.0960045 38.2314243,51.1869867 38.3888385,51.2586707 L38.3888385,51.6060606 L35.7746527,51.6060606 C35.7015676,51.4240936 35.6509709,51.2531574 35.6228613,51.0932469 C35.5947516,50.9333365 35.5722642,50.7513722 35.5553984,50.5473485 C35.2237044,50.9002543 34.8414186,51.2007711 34.4085298,51.448908 C33.891312,51.7411581 33.3066397,51.887281 32.6544955,51.887281 C31.8224494,51.887281 31.1351784,51.6543115 30.5926619,51.1883656 C30.0501453,50.7224196 29.7788911,50.0621097 29.7788911,49.207416 C29.7788911,48.0990712 30.2145844,47.2967739 31.085984,46.8005001 C31.5638483,46.5303066 32.2665794,46.3373141 33.1941984,46.2215169 L34.0121855,46.1222627 Z M35.4710698,47.2223307 C35.3192776,47.3160713 35.1660823,47.3918898 35.0114791,47.4497884 C34.856876,47.507687 34.6446512,47.5614492 34.3747984,47.6110766 L33.8350955,47.7103308 C33.3291215,47.7985573 32.9665123,47.9060817 32.7472569,48.0329072 C32.3762093,48.2479592 32.1906883,48.5815604 32.1906883,49.033721 C32.1906883,49.4362542 32.3045308,49.7271214 32.5322191,49.9063314 C32.7599073,50.0855414 33.0367834,50.175145 33.3628555,50.175145 C33.8800733,50.175145 34.356525,50.0262651 34.7922248,49.7285008 C35.2279246,49.4307366 35.454204,48.8876006 35.4710698,48.0990767 L35.4710698,47.2223307 Z" id="Combined-Shape"></path>
            <polygon id="Combined-Shape" points="71.9556945 41.5152107 69.5185987 41.5152107 69.5185987 39.3398881 71.9556945 39.3398881"></polygon>
            <polygon id="Combined-Shape" points="69.5185987 42.5904652 71.9556945 42.5904652 71.9556945 51.6060606 69.5185987 51.6060606"></polygon>
            <path d="M66.9408164,43.6739909 C67.6238813,44.5286846 67.9654086,45.6314987 67.9654086,46.9824663 C67.9654086,48.3830612 67.6280977,49.543773 66.9534657,50.4646366 C66.2788337,51.3855002 65.3371741,51.8459251 64.1284585,51.8459251 C63.3694975,51.8459251 62.759527,51.6970452 62.2985285,51.3992809 C62.0230537,51.222828 61.7250958,50.91404 61.4046456,50.4729078 L61.4046456,51.6060606 L59.0518784,51.6060606 L59.0518784,39.4308712 L61.4468099,39.4308712 L61.4468099,43.764974 C61.7503942,43.3458983 62.0848942,43.0260822 62.4503199,42.8055161 C62.8832087,42.5298084 63.4341499,42.3919567 64.1031599,42.3919567 C65.3118755,42.3919567 66.2577516,42.8192971 66.9408164,43.6739909 Z M64.9295799,49.16606 C65.2725179,48.6753004 65.4439842,48.0301541 65.4439842,47.2306019 C65.4439842,46.5909601 65.3596565,46.0616094 65.1909985,45.6425337 C64.8705483,44.8484957 64.2802542,44.4514826 63.4200985,44.4514826 C62.5486989,44.4514826 61.949972,44.8402246 61.6238999,45.6177202 C61.4552419,46.0312817 61.3709141,46.5661465 61.3709141,47.2223307 C61.3709141,47.9943122 61.5451915,48.6339444 61.8937513,49.1412464 C62.2423111,49.6485485 62.7735758,49.9021958 63.4875613,49.9021958 C64.105974,49.9021958 64.586642,49.6568196 64.9295799,49.16606 Z" id="Combined-Shape"></path>
        </g>
    </g>
</svg>